<svg width="34" height="25" viewBox="0 0 34 25" fill="none" xmlns="http://www.w3.org/2000/svg">
<path d="M20.69 18.6032L17.8087 21.056V13.1376C17.8087 12.7762 17.6158 12.442 17.3025 12.2612C16.9895 12.0802 16.6035 12.0802 16.2906 12.2612C15.9773 12.442 15.7843 12.7761 15.7843 13.1376V21.056L12.9031 18.6032C12.6277 18.3686 12.2481 18.2989 11.9074 18.4204C11.5666 18.5416 11.3164 18.8355 11.2512 19.1911C11.1858 19.5469 11.3152 19.9105 11.5908 20.1449L16.1385 24.0182C16.3216 24.174 16.5544 24.2596 16.7949 24.2596C17.0354 24.2596 17.268 24.174 17.4511 24.0182L22.0023 20.1449C22.2779 19.9105 22.4074 19.5469 22.3419 19.1911C22.2767 18.8355 22.0266 18.5416 21.6858 18.4204C21.345 18.2989 20.9654 18.3686 20.6901 18.6032H20.69Z" fill="white"/>
<path d="M5.76845 12.4191C9.64528 12.4191 11.0912 10.8644 10.9683 8.87776C10.9683 8.87776 10.9375 8.35588 10.9067 7.86378C10.8721 7.3342 11.3452 6.8498 12.0721 6.65824V6.65849C13.7133 6.23701 15.402 6.01732 17.0989 6.00511C18.7957 6.01753 20.4845 6.23697 22.1256 6.65849C22.8525 6.8501 23.3254 7.33446 23.291 7.86403C23.2602 8.3561 23.2294 8.87801 23.2294 8.87801C23.1065 10.8647 24.5524 12.4194 28.4293 12.4194C34.4138 12.4194 34.0943 9.66678 32.6021 7.45126V7.45101C31.5436 5.93405 30.1719 4.64975 28.5753 3.68049C25.3486 1.64884 21.2296 0.61603 17.0986 0.585938C12.968 0.616008 8.84915 1.64884 5.62194 3.68049C4.02534 4.64968 2.65373 5.93405 1.59519 7.45101C0.102972 9.66653 -0.216231 12.4191 5.76802 12.4191H5.76845Z" fill="white"/>
</svg>
