<svg width="80" height="80" viewBox="0 0 80 80" fill="none" xmlns="http://www.w3.org/2000/svg">
<g filter="url(#filter0_d_2619_2517)">
<rect x="12.7845" y="8.59082" width="54.7324" height="54.7324" rx="27.3662" fill="white"/>
<rect x="12.8529" y="8.65924" width="54.5956" height="54.5956" rx="27.2978" stroke="black" stroke-opacity="0.04" stroke-width="0.136831"/>
</g>
<path d="M48.7646 37.4197C48.7646 38.3913 48.6026 39.3268 48.3063 40.1985L46.904 38.7962C46.9957 38.3431 47.0419 37.882 47.0418 37.4197V35.6969C47.0418 35.4685 47.1325 35.2494 47.2941 35.0878C47.4556 34.9263 47.6747 34.8355 47.9032 34.8355C48.1316 34.8355 48.3507 34.9263 48.5123 35.0878C48.6738 35.2494 48.7646 35.4685 48.7646 35.6969V37.4197ZM40.1507 44.3108C41.5599 44.3108 42.8692 43.8887 43.9615 43.1617L45.1984 44.4003C43.9686 45.2922 42.5238 45.8409 41.0121 45.9905V49.4791H46.1804C46.4089 49.4791 46.628 49.5698 46.7895 49.7314C46.951 49.8929 47.0418 50.112 47.0418 50.3404C47.0418 50.5689 46.951 50.788 46.7895 50.9495C46.628 51.1111 46.4089 51.2018 46.1804 51.2018H34.121C33.8926 51.2018 33.6735 51.1111 33.5119 50.9495C33.3504 50.788 33.2596 50.5689 33.2596 50.3404C33.2596 50.112 33.3504 49.8929 33.5119 49.7314C33.6735 49.5698 33.8926 49.4791 34.121 49.4791H39.2893V45.9905C37.1646 45.7769 35.195 44.7818 33.7625 43.1981C32.33 41.6144 31.5368 39.5551 31.5369 37.4197V35.6969C31.5369 35.4685 31.6276 35.2494 31.7892 35.0878C31.9507 34.9263 32.1698 34.8355 32.3983 34.8355C32.6267 34.8355 32.8458 34.9263 33.0073 35.0878C33.1689 35.2494 33.2596 35.4685 33.2596 35.6969V37.4197C33.2596 39.2473 33.9857 41.0001 35.278 42.2924C36.5703 43.5847 38.3231 44.3108 40.1507 44.3108ZM45.319 28.8058V37.2112L35.2546 27.1468C35.649 25.9878 36.4419 25.0064 37.4922 24.3772C38.5425 23.7481 39.7819 23.5121 40.9899 23.7112C42.1979 23.9103 43.296 24.5317 44.0887 25.4646C44.8815 26.3975 45.3175 27.5815 45.319 28.8058Z" fill="#9B9FA4"/>
<path d="M42.7107 41.9115L34.9824 34.1814V37.4202C34.9821 38.3252 35.2195 39.2144 35.6708 39.9989C36.122 40.7834 36.7714 41.4356 37.5539 41.8903C38.3363 42.345 39.2245 42.5863 40.1295 42.59C41.0345 42.5937 41.9246 42.3598 42.7107 41.9115ZM29.2042 25.9707L49.8775 46.6439L51.0972 45.4242L30.4239 24.751L29.2042 25.9707Z" fill="#9B9FA4"/>
<defs>
<filter id="filter0_d_2619_2517" x="0.469696" y="0.380961" width="79.362" height="79.362" filterUnits="userSpaceOnUse" color-interpolation-filters="sRGB">
<feFlood flood-opacity="0" result="BackgroundImageFix"/>
<feColorMatrix in="SourceAlpha" type="matrix" values="0 0 0 0 0 0 0 0 0 0 0 0 0 0 0 0 0 0 127 0" result="hardAlpha"/>
<feMorphology radius="2.73662" operator="dilate" in="SourceAlpha" result="effect1_dropShadow_2619_2517"/>
<feOffset dy="4.10493"/>
<feGaussianBlur stdDeviation="4.78908"/>
<feComposite in2="hardAlpha" operator="out"/>
<feColorMatrix type="matrix" values="0 0 0 0 0 0 0 0 0 0 0 0 0 0 0 0 0 0 0.08 0"/>
<feBlend mode="normal" in2="BackgroundImageFix" result="effect1_dropShadow_2619_2517"/>
<feBlend mode="normal" in="SourceGraphic" in2="effect1_dropShadow_2619_2517" result="shape"/>
</filter>
</defs>
</svg>
