<svg width="19" height="19" viewBox="0 0 19 19" fill="none" xmlns="http://www.w3.org/2000/svg">
<path d="M2.38518 5.90848L1.27344 5.38177C1.44888 4.97217 1.62446 4.62118 1.85847 4.27002C2.79478 2.8657 4.14053 1.75396 5.6619 1.052L6.18849 2.16375C4.84274 2.80735 3.73099 3.7435 2.9117 4.97226C2.73613 5.26484 2.50211 5.55742 2.38512 5.90858L2.38518 5.90848Z" fill="#36A48B"/>
<path d="M1.80005 7.54669L0.571289 7.31255C0.629856 7.01998 0.688295 6.72739 0.805302 6.43481L1.97562 6.84441C1.91705 7.07855 1.85849 7.31255 1.80005 7.54669L1.80005 7.54669Z" fill="#36A48B"/>
<path d="M9.2897 18.079C4.37452 18.079 0.395752 14.1003 0.395752 9.18509H1.62451C1.62451 13.398 5.07664 16.8504 9.28983 16.8504C13.503 16.8504 16.9551 13.3983 16.9551 9.18509C16.9551 4.9719 13.503 1.51978 9.28983 1.51978V0.291016C14.205 0.291016 18.1838 4.26979 18.1838 9.18497C18.1838 14.1001 14.205 18.0789 9.28983 18.0789L9.2897 18.079Z" fill="#36A48B"/>
<path d="M13.6782 9.18516C13.6782 11.6088 11.7135 13.5737 9.28971 13.5737C6.86595 13.5737 4.90118 11.6089 4.90118 9.18516C4.90118 6.7614 6.86595 4.79663 9.28971 4.79663C11.7135 4.79663 13.6782 6.7614 13.6782 9.18516Z" fill="#36A48B"/>
</svg>
