<svg width="29" height="30" viewBox="0 0 29 30" fill="none" xmlns="http://www.w3.org/2000/svg">
<path d="M14.4221 29.1133C22.357 29.1133 28.7894 22.6689 28.7894 14.7193C28.7894 6.76963 22.357 0.325195 14.4221 0.325195C6.48731 0.325195 0.0548744 6.76963 0.0548744 14.7193C0.0548744 22.6689 6.48731 29.1133 14.4221 29.1133Z" fill="url(#paint0_linear_2619_2476)"/>
<path d="M7.29393 13.0987H10.4533C10.702 13.0987 10.9049 13.2996 10.9049 13.5503V20.8047C10.9049 21.0535 10.7039 21.2563 10.4533 21.2563H7.29393C7.04515 21.2563 6.84232 21.0554 6.84232 20.8047V13.5484C6.84423 13.2996 7.04515 13.0987 7.29393 13.0987ZM12.009 19.5514V14.354C12.0109 13.0738 12.3688 11.8204 13.0443 10.7335C13.4557 10.0752 14.3781 9.02084 14.8948 8.47547C15.0096 8.35299 15.4267 7.99324 15.4267 7.79613C15.4267 7.54354 15.4553 7.13595 15.4649 6.37625C15.4707 5.89403 15.863 5.49792 16.3452 5.50174H16.3662C17.2102 5.51705 17.48 6.29779 17.48 6.29779C17.48 6.29779 18.2014 7.7215 17.5278 9.46288C16.9595 10.9344 16.8428 11.0531 16.8428 11.0531C16.8428 11.0531 16.659 11.3191 17.2407 11.3076C17.2407 11.3076 20.7924 11.2923 20.9149 11.2923C21.1771 11.2923 22.0132 11.5315 21.9655 12.5973C21.931 13.3857 21.4412 13.6613 21.1905 13.7512C21.1579 13.7627 21.1407 13.7991 21.1541 13.8316C21.1598 13.845 21.1694 13.8565 21.1828 13.8641C21.4392 14.0134 21.9636 14.3904 21.9521 14.9682C21.9368 15.6687 21.6554 15.927 21.0699 16.0878C21.0374 16.0954 21.0163 16.1298 21.0259 16.1623C21.0297 16.1796 21.0412 16.193 21.0546 16.2007C21.2765 16.327 21.6573 16.635 21.6344 17.2589C21.6114 17.8942 21.1522 18.1181 20.9015 18.1946C20.8689 18.2041 20.8498 18.2386 20.8594 18.2712C20.8632 18.2846 20.8728 18.2979 20.8843 18.3055C21.0431 18.4147 21.2785 18.6616 21.267 19.1687C21.2612 19.4366 21.1713 19.6317 21.0584 19.7714C20.8804 19.9914 20.601 20.1062 20.3178 20.1081L12.4377 20.1235C12.4357 20.1216 12.009 20.1235 12.009 19.5514Z" fill="white"/>
<defs>
<linearGradient id="paint0_linear_2619_2476" x1="14.4221" y1="0.325195" x2="14.4221" y2="29.1133" gradientUnits="userSpaceOnUse">
<stop stop-color="#5E91FF"/>
<stop offset="1" stop-color="#0048E2"/>
</linearGradient>
</defs>
</svg>
