<svg width="80" height="80" viewBox="0 0 80 80" fill="none" xmlns="http://www.w3.org/2000/svg">
<g filter="url(#filter0_d_2619_2536)">
<rect x="12.9345" y="8.59082" width="54.7324" height="54.7324" rx="27.3662" fill="white"/>
<rect x="13.0029" y="8.65924" width="54.5956" height="54.5956" rx="27.2978" stroke="black" stroke-opacity="0.04" stroke-width="0.136831"/>
</g>
<path fill-rule="evenodd" clip-rule="evenodd" d="M45.7278 26.5699L47.5399 25.1682C47.9473 24.8538 48.4989 24.8057 48.8615 25.1682L51.0907 27.3974C51.4532 27.7599 51.4051 28.3116 51.0907 28.719L49.6889 30.5311C50.1604 31.3458 50.5292 32.2279 50.7763 33.1579L53.0503 33.4466C53.5604 33.514 53.9838 33.8667 53.9838 34.3801V37.5363C53.9838 38.0494 53.5604 38.4023 53.0503 38.4697L50.7763 38.7584C50.5292 39.6886 50.1604 40.5705 49.6889 41.3852L51.0907 43.1973C51.4051 43.6047 51.4532 44.1564 51.0907 44.5189L48.8615 46.7481C48.4989 47.1106 47.9473 47.0625 47.5399 46.7481L45.7278 45.3464C44.913 45.8179 44.0309 46.1867 43.1009 46.4337L42.8123 48.7078C42.7449 49.2179 42.3921 49.6413 41.8788 49.6413H38.7226C38.2095 49.6413 37.8565 49.2178 37.7891 48.7078L37.5005 46.4337C36.5703 46.1867 35.6884 45.8179 34.8736 45.3464L33.0615 46.7481C32.6542 47.0625 32.1025 47.1106 31.74 46.7481L29.5108 44.5189C29.1483 44.1564 29.1964 43.6047 29.5108 43.1973L30.9125 41.3852C30.441 40.5705 30.0722 39.6884 29.8252 38.7584L27.5511 38.4697C27.041 38.4023 26.6176 38.0496 26.6176 37.5363V34.3801C26.6176 33.8669 27.041 33.514 27.5511 33.4466L29.8252 33.1579C30.0722 32.2277 30.441 31.3458 30.9125 30.5311L29.5108 28.719C29.1964 28.3116 29.1483 27.7599 29.5108 27.3974L31.74 25.1682C32.1025 24.8057 32.6542 24.8538 33.0615 25.1682L34.8736 26.5699C35.6884 26.0984 36.5705 25.7296 37.5005 25.4826L37.7891 23.2085L37.7924 23.183L37.7956 23.1604L37.8021 23.1379L37.8054 23.1123L37.8119 23.0898L37.8151 23.0673L37.8411 22.9772L37.8506 22.9546L37.8636 22.9096L37.8731 22.8903L37.8922 22.8453L37.9113 22.8067L37.9208 22.7842L37.9336 22.7649L37.9432 22.7456L37.956 22.7263L37.9655 22.7071L37.9911 22.6685L38.0039 22.6525L38.0167 22.6332L38.0295 22.6171L38.0455 22.5979L38.0583 22.5818L38.0743 22.5658L38.0871 22.5498L38.1192 22.5177L38.1352 22.5049L38.1513 22.4889L38.1673 22.4761L38.1833 22.46L38.2026 22.4473L38.2186 22.4345L38.2379 22.4217C38.2475 22.4152 38.2604 22.4056 38.2732 22.3991L38.2925 22.3896L38.3118 22.3768L38.3889 22.3386L38.4114 22.3321L38.4307 22.3257V22.3224L38.4532 22.3159L38.4725 22.3094L38.495 22.3029L38.5176 22.2997L38.5401 22.2932L38.5594 22.29C38.5754 22.2867 38.5914 22.2835 38.6075 22.2804C38.6203 22.2804 38.6363 22.2772 38.6523 22.2772L38.6749 22.2739H41.8792C42.3923 22.2739 42.7452 22.6973 42.8126 23.2074L43.1013 25.4815C44.0315 25.7285 44.9134 26.0973 45.7281 26.5688L45.7278 26.5699ZM38.0975 32.4238C38.0975 33.4631 38.2899 34.0405 38.9057 35.0412C39.39 35.6602 39.8487 35.9393 40.301 35.904C40.7532 35.9393 41.2119 35.6602 41.6962 35.0412C42.312 34.0405 42.5044 33.4631 42.5044 32.4238C42.5044 29.4152 38.0973 29.4152 38.0973 32.4238H38.0975ZM45.5773 40.7217C45.5773 40.7217 45.5773 39.4643 45.4297 38.3C45.2789 37.1358 43.0337 36.6705 42.1933 36.3434C41.924 36.2376 41.7795 36.0708 41.7025 35.9265C41.3145 36.2792 40.8462 36.5358 40.3008 36.507C39.7619 36.5358 39.3001 36.2857 38.9119 35.9393C38.8412 36.0773 38.6937 36.2311 38.4083 36.3434C37.568 36.6706 35.3227 37.1356 35.1719 38.3C35.0243 39.4643 35.0243 40.7217 35.0243 40.7217H36.4837V40.3945C36.4837 40.2695 36.5864 40.1668 36.7114 40.1668C36.8364 40.1668 36.9359 40.2695 36.9359 40.3945V40.7217H43.6651V40.3945C43.6651 40.2695 43.7645 40.1668 43.8895 40.1668C44.0146 40.1668 44.1173 40.2695 44.1173 40.3945V40.7217L45.5773 40.7217ZM40.301 27.927C44.7369 27.927 48.3325 31.5226 48.3325 35.9585C48.3325 40.3943 44.7368 43.99 40.301 43.99C35.8651 43.99 32.2695 40.3943 32.2695 35.9585C32.2695 31.5226 35.8651 27.927 40.301 27.927Z" fill="#9B9FA4"/>
<path d="M26.628 49.6881C26.6275 49.6886 26.6269 49.6888 26.6266 49.6888H26.6244C26.623 49.6888 26.6215 49.6884 26.6201 49.6874C26.619 49.6865 26.6186 49.685 26.6186 49.683C26.6186 49.6816 26.619 49.6805 26.6201 49.6794C26.6215 49.678 26.623 49.6772 26.6244 49.6772C26.6253 49.6772 26.626 49.6776 26.6266 49.678C26.6269 49.678 26.6275 49.6783 26.628 49.6787V49.6809C26.6275 49.6805 26.6269 49.6801 26.6266 49.6801C26.626 49.6798 26.6255 49.6794 26.6251 49.6794C26.624 49.6794 26.6231 49.68 26.6222 49.6809C26.6217 49.6814 26.6215 49.6821 26.6215 49.683C26.6215 49.6845 26.6217 49.6856 26.6222 49.6859C26.6231 49.6865 26.624 49.6866 26.6251 49.6866H26.6266C26.6269 49.6866 26.6275 49.6865 26.628 49.6859V49.6881Z" fill="#9B9FA4"/>
<path d="M26.6371 49.6831C26.6371 49.6827 26.6368 49.6823 26.6364 49.6823C26.6353 49.6823 26.6346 49.6827 26.6342 49.6831V49.6852V49.6888H26.6313V49.6809H26.6342V49.6816C26.6342 49.6813 26.6344 49.6809 26.635 49.6809C26.6353 49.6805 26.6359 49.6802 26.6364 49.6802H26.6371V49.6831Z" fill="#9B9FA4"/>
<path d="M26.6469 49.6845V49.6852H26.6411V49.6874H26.6433H26.6447C26.6451 49.687 26.6458 49.6865 26.6469 49.686V49.6881C26.6458 49.6887 26.6451 49.6888 26.6447 49.6888H26.6433C26.6413 49.6888 26.6399 49.6887 26.639 49.6881C26.6384 49.6872 26.6382 49.686 26.6382 49.6845C26.6382 49.6831 26.6384 49.6822 26.639 49.6816C26.6399 49.6807 26.6411 49.6802 26.6426 49.6802C26.644 49.6802 26.6449 49.6807 26.6455 49.6816C26.6464 49.6822 26.6469 49.6831 26.6469 49.6845ZM26.6447 49.6838C26.6447 49.6834 26.6444 49.6831 26.644 49.6831C26.6435 49.6827 26.6429 49.6823 26.6426 49.6823C26.642 49.6823 26.6415 49.6827 26.6411 49.6831V49.6838H26.6447Z" fill="#9B9FA4"/>
<path d="M26.6536 49.6852C26.653 49.6852 26.6525 49.6856 26.6521 49.686V49.6874H26.6528C26.6537 49.6874 26.6543 49.6872 26.6543 49.6867C26.6547 49.6863 26.655 49.6858 26.655 49.6852H26.6536ZM26.6572 49.6838V49.6888H26.655V49.6874C26.6545 49.6879 26.6539 49.6885 26.6536 49.6888H26.6521C26.651 49.6888 26.6503 49.6887 26.65 49.6881C26.6494 49.6878 26.6492 49.687 26.6492 49.686C26.6492 49.6851 26.6494 49.6845 26.65 49.6845C26.6509 49.6841 26.6521 49.6838 26.6536 49.6838H26.655V49.6831C26.655 49.6827 26.6547 49.6823 26.6543 49.6823H26.6528H26.6514H26.65V49.6809H26.6514C26.6523 49.6805 26.653 49.6802 26.6536 49.6802C26.655 49.6802 26.6559 49.6807 26.6565 49.6816C26.6568 49.6822 26.6572 49.6829 26.6572 49.6838V49.6838Z" fill="#9B9FA4"/>
<path d="M26.6636 49.6772V49.6801H26.6665V49.6816H26.6636V49.6852V49.6859H26.6643H26.6657V49.6881H26.6636C26.6625 49.6881 26.6618 49.6879 26.6614 49.6874C26.6609 49.687 26.6607 49.6863 26.6607 49.6852V49.6816H26.6592V49.6801H26.6607V49.6772H26.6636Z" fill="#9B9FA4"/>
<path d="M26.6764 49.6845V49.6852H26.6706V49.6874H26.6728H26.6742C26.6746 49.687 26.6753 49.6865 26.6764 49.686V49.6881C26.6753 49.6887 26.6746 49.6888 26.6742 49.6888H26.6728C26.6708 49.6888 26.6694 49.6887 26.6684 49.6881C26.6679 49.6872 26.6677 49.686 26.6677 49.6845C26.6677 49.6831 26.6679 49.6822 26.6684 49.6816C26.6694 49.6807 26.6706 49.6802 26.6721 49.6802C26.6735 49.6802 26.6744 49.6807 26.675 49.6816C26.6759 49.6822 26.6764 49.6831 26.6764 49.6845ZM26.6742 49.6838C26.6742 49.6834 26.6739 49.6831 26.6735 49.6831C26.673 49.6827 26.6724 49.6823 26.6721 49.6823C26.6715 49.6823 26.671 49.6827 26.6706 49.6831V49.6838H26.6742Z" fill="#9B9FA4"/>
<path d="M26.685 49.6816V49.6772H26.6872V49.6888H26.685V49.6874C26.6845 49.6879 26.6839 49.6884 26.6836 49.6888H26.6821C26.6811 49.6888 26.6802 49.6886 26.6793 49.6881C26.6787 49.6872 26.6785 49.6859 26.6785 49.6845C26.6785 49.683 26.6787 49.6821 26.6793 49.6816C26.6802 49.6807 26.6811 49.6801 26.6821 49.6801C26.6825 49.6801 26.683 49.6805 26.6836 49.6809C26.6839 49.6809 26.6845 49.6812 26.685 49.6816ZM26.6829 49.6874C26.6832 49.6874 26.6838 49.6872 26.6843 49.6866C26.6847 49.6863 26.685 49.6856 26.685 49.6845C26.685 49.6841 26.6847 49.6836 26.6843 49.683C26.6838 49.6827 26.6832 49.6823 26.6829 49.6823C26.6823 49.6823 26.6818 49.6827 26.6814 49.683V49.6845V49.6866C26.6818 49.6872 26.6823 49.6874 26.6829 49.6874Z" fill="#9B9FA4"/>
<path d="M26.7007 49.6874C26.701 49.6874 26.7014 49.6872 26.7014 49.6866C26.7018 49.6863 26.7021 49.6856 26.7021 49.6845C26.7021 49.6841 26.7018 49.6836 26.7014 49.683C26.7014 49.6827 26.701 49.6823 26.7007 49.6823C26.7001 49.6823 26.6996 49.6827 26.6992 49.683V49.6845V49.6866C26.6996 49.6872 26.7001 49.6874 26.7007 49.6874ZM26.6992 49.6816C26.6992 49.6812 26.6994 49.6809 26.7 49.6809C26.7003 49.6805 26.7009 49.6801 26.7014 49.6801C26.7023 49.6801 26.703 49.6807 26.7036 49.6816C26.7045 49.6821 26.705 49.683 26.705 49.6845C26.705 49.6859 26.7045 49.6872 26.7036 49.6881C26.703 49.6886 26.7023 49.6888 26.7014 49.6888H26.7C26.6994 49.6884 26.6992 49.6879 26.6992 49.6874V49.6888H26.6964V49.6772H26.6992V49.6816Z" fill="#9B9FA4"/>
<path d="M26.7063 49.6816H26.7092L26.7113 49.6867L26.7135 49.6816H26.7157L26.7128 49.6903C26.7122 49.6912 26.7117 49.6919 26.7113 49.6925C26.7108 49.6928 26.7101 49.6932 26.7092 49.6932H26.7077V49.691H26.7084H26.7092C26.7095 49.691 26.7099 49.6907 26.7099 49.6903V49.6896L26.7063 49.6816Z" fill="#9B9FA4"/>
<path d="M26.7267 49.6874V49.6917H26.7238V49.6809H26.7267V49.6816C26.7267 49.6813 26.7269 49.6809 26.7274 49.6809C26.7278 49.6805 26.7283 49.6802 26.7288 49.6802C26.7297 49.6802 26.7305 49.6807 26.731 49.6816C26.7319 49.6822 26.7325 49.6831 26.7325 49.6845C26.7325 49.686 26.7319 49.6872 26.731 49.6881C26.7305 49.6887 26.7297 49.6888 26.7288 49.6888H26.7274C26.7269 49.6885 26.7267 49.6879 26.7267 49.6874V49.6874ZM26.7281 49.6823C26.7276 49.6823 26.727 49.6827 26.7267 49.6831V49.6845V49.6867C26.727 49.6872 26.7276 49.6874 26.7281 49.6874C26.7285 49.6874 26.7288 49.6872 26.7288 49.6867C26.7292 49.6863 26.7296 49.6856 26.7296 49.6845C26.7296 49.6841 26.7292 49.6836 26.7288 49.6831C26.7288 49.6827 26.7285 49.6823 26.7281 49.6823Z" fill="#9B9FA4"/>
<path d="M26.739 49.6823C26.7384 49.6823 26.7379 49.6827 26.7375 49.6831V49.6845V49.6867C26.7379 49.6872 26.7384 49.6874 26.739 49.6874C26.7399 49.6874 26.7404 49.6872 26.7404 49.6867C26.7408 49.6863 26.7412 49.6856 26.7412 49.6845C26.7412 49.6836 26.7408 49.6831 26.7404 49.6831C26.7404 49.6827 26.7399 49.6823 26.739 49.6823ZM26.739 49.6802C26.7404 49.6802 26.7413 49.6807 26.7419 49.6816C26.7428 49.6822 26.7433 49.6831 26.7433 49.6845C26.7433 49.686 26.7428 49.6872 26.7419 49.6881C26.7413 49.6887 26.7404 49.6888 26.739 49.6888C26.7375 49.6888 26.7363 49.6887 26.7354 49.6881C26.7348 49.6872 26.7346 49.686 26.7346 49.6845C26.7346 49.6831 26.7348 49.6822 26.7354 49.6816C26.7363 49.6807 26.7375 49.6802 26.739 49.6802Z" fill="#9B9FA4"/>
<path d="M26.7492 49.6874V49.6917H26.7463V49.6809H26.7492V49.6816C26.7492 49.6813 26.7493 49.6809 26.7499 49.6809C26.7503 49.6805 26.7508 49.6802 26.7513 49.6802C26.7522 49.6802 26.753 49.6807 26.7535 49.6816C26.7544 49.6822 26.7549 49.6831 26.7549 49.6845C26.7549 49.686 26.7544 49.6872 26.7535 49.6881C26.753 49.6887 26.7522 49.6888 26.7513 49.6888H26.7499C26.7493 49.6885 26.7492 49.6879 26.7492 49.6874V49.6874ZM26.7506 49.6823C26.7501 49.6823 26.7495 49.6827 26.7492 49.6831V49.6845V49.6867C26.7495 49.6872 26.7501 49.6874 26.7506 49.6874C26.751 49.6874 26.7513 49.6872 26.7513 49.6867C26.7517 49.6863 26.7521 49.6856 26.7521 49.6845C26.7521 49.6841 26.7517 49.6836 26.7513 49.6831C26.7513 49.6827 26.751 49.6823 26.7506 49.6823Z" fill="#9B9FA4"/>
<path d="M26.7642 49.6809V49.6831C26.7636 49.6827 26.7631 49.6823 26.7627 49.6823H26.762C26.7615 49.6823 26.7609 49.6827 26.7606 49.6831C26.76 49.6836 26.7598 49.6841 26.7598 49.6845C26.7598 49.6856 26.76 49.6863 26.7606 49.6867C26.7609 49.6872 26.7615 49.6874 26.762 49.6874H26.7635C26.7638 49.687 26.7642 49.6867 26.7642 49.6867V49.6888H26.7627H26.762C26.76 49.6888 26.7586 49.6887 26.7577 49.6881C26.7571 49.6872 26.757 49.686 26.757 49.6845C26.757 49.6831 26.7571 49.6822 26.7577 49.6816C26.7586 49.6807 26.76 49.6802 26.762 49.6802C26.7624 49.6802 26.7627 49.6805 26.7627 49.6809H26.7642Z" fill="#9B9FA4"/>
<path d="M26.771 49.6823C26.7704 49.6823 26.7699 49.6827 26.7695 49.6831V49.6845V49.6867C26.7699 49.6872 26.7704 49.6874 26.771 49.6874C26.7719 49.6874 26.7724 49.6872 26.7724 49.6867C26.7728 49.6863 26.7731 49.6856 26.7731 49.6845C26.7731 49.6836 26.7728 49.6831 26.7724 49.6831C26.7724 49.6827 26.7719 49.6823 26.771 49.6823ZM26.771 49.6802C26.7724 49.6802 26.7733 49.6807 26.7739 49.6816C26.7748 49.6822 26.7753 49.6831 26.7753 49.6845C26.7753 49.686 26.7748 49.6872 26.7739 49.6881C26.7733 49.6887 26.7724 49.6888 26.771 49.6888C26.7695 49.6888 26.7683 49.6887 26.7674 49.6881C26.7668 49.6872 26.7666 49.686 26.7666 49.6845C26.7666 49.6831 26.7668 49.6822 26.7674 49.6816C26.7683 49.6807 26.7695 49.6802 26.771 49.6802Z" fill="#9B9FA4"/>
<path d="M26.7843 49.6831C26.7843 49.6827 26.7839 49.6823 26.7835 49.6823C26.7824 49.6823 26.7817 49.6827 26.7814 49.6831V49.6852V49.6888H26.7785V49.6809H26.7814V49.6816C26.7814 49.6813 26.7815 49.6809 26.7821 49.6809C26.7824 49.6805 26.783 49.6802 26.7835 49.6802H26.7843V49.6831Z" fill="#9B9FA4"/>
<path d="M26.7942 49.6838V49.6888H26.792V49.6852V49.6838C26.792 49.6834 26.7917 49.6831 26.7913 49.6831V49.6823H26.7906C26.79 49.6823 26.7895 49.6827 26.7891 49.6831V49.6845V49.6888H26.7863V49.6809H26.7891V49.6816C26.7891 49.6813 26.7893 49.6809 26.7899 49.6809C26.7902 49.6805 26.7908 49.6802 26.7913 49.6802C26.7922 49.6802 26.7929 49.6807 26.7935 49.6816C26.7938 49.6822 26.7942 49.6829 26.7942 49.6838Z" fill="#9B9FA4"/>
<path d="M26.8012 49.6852C26.8007 49.6852 26.8001 49.6856 26.7998 49.686V49.6874H26.8005C26.8014 49.6874 26.8019 49.6872 26.8019 49.6867C26.8023 49.6863 26.8027 49.6858 26.8027 49.6852H26.8012ZM26.8048 49.6838V49.6888H26.8027V49.6874C26.8021 49.6879 26.8016 49.6885 26.8012 49.6888H26.7998C26.7987 49.6888 26.798 49.6887 26.7976 49.6881C26.7971 49.6878 26.7969 49.687 26.7969 49.686C26.7969 49.6851 26.7971 49.6845 26.7976 49.6845C26.7985 49.6841 26.7998 49.6838 26.8012 49.6838H26.8027V49.6831C26.8027 49.6827 26.8023 49.6823 26.8019 49.6823H26.8005H26.799H26.7976V49.6809H26.799C26.7999 49.6805 26.8007 49.6802 26.8012 49.6802C26.8027 49.6802 26.8036 49.6807 26.8041 49.6816C26.8045 49.6822 26.8048 49.6829 26.8048 49.6838V49.6838Z" fill="#9B9FA4"/>
<path d="M26.8143 49.6831C26.8143 49.6827 26.814 49.6823 26.8136 49.6823C26.8125 49.6823 26.8118 49.6827 26.8115 49.6831V49.6852V49.6888H26.8086V49.6809H26.8115V49.6816C26.8115 49.6813 26.8116 49.6809 26.8122 49.6809C26.8125 49.6805 26.8131 49.6802 26.8136 49.6802H26.8143V49.6831Z" fill="#9B9FA4"/>
<path d="M26.8191 49.6772V49.6801H26.822V49.6816H26.8191V49.6852V49.6859H26.8198H26.8213V49.6881H26.8191C26.818 49.6881 26.8173 49.6879 26.817 49.6874C26.8164 49.687 26.8162 49.6863 26.8162 49.6852V49.6816H26.8148V49.6801H26.8162V49.6772H26.8191Z" fill="#9B9FA4"/>
<path d="M26.8304 49.6809V49.6831C26.8299 49.6827 26.8291 49.6823 26.8282 49.6823H26.8268H26.8253V49.6831V49.6838H26.8268H26.8275C26.829 49.6838 26.8297 49.6841 26.8297 49.6845C26.83 49.6851 26.8304 49.6858 26.8304 49.6867C26.8304 49.6872 26.83 49.6878 26.8297 49.6881C26.8291 49.6887 26.8282 49.6888 26.8268 49.6888H26.8253H26.8232V49.6867C26.8235 49.6867 26.8241 49.687 26.8246 49.6874H26.8268H26.8275C26.8279 49.687 26.8282 49.6867 26.8282 49.6867C26.8282 49.6863 26.8279 49.686 26.8275 49.686C26.8275 49.686 26.8272 49.6858 26.8268 49.6852C26.8253 49.6852 26.8243 49.6851 26.8239 49.6845C26.8234 49.6841 26.8232 49.6836 26.8232 49.6831C26.8232 49.6822 26.8234 49.6814 26.8239 49.6809C26.8248 49.6805 26.8257 49.6802 26.8268 49.6802C26.8272 49.6802 26.8277 49.6805 26.8282 49.6809H26.8304Z" fill="#9B9FA4"/>
<path d="M26.6244 49.6936V49.6958H26.6229H26.6222V49.6965V49.6972H26.6244V49.6987H26.6222V49.7052H26.6193V49.6987H26.6179V49.6972H26.6193V49.6965C26.6193 49.6956 26.6195 49.6949 26.62 49.6943C26.6204 49.694 26.6215 49.6936 26.6229 49.6936H26.6244Z" fill="#9B9FA4"/>
<path d="M26.6323 49.7014C26.6323 49.701 26.632 49.7007 26.6316 49.7007C26.6305 49.7007 26.6298 49.701 26.6294 49.7014V49.7035V49.7072H26.6266V49.6992H26.6294V49.6999C26.6294 49.6996 26.6296 49.6992 26.6302 49.6992C26.6305 49.6988 26.6311 49.6985 26.6316 49.6985H26.6323V49.7014Z" fill="#9B9FA4"/>
<path d="M26.638 49.7007C26.6374 49.7007 26.6369 49.701 26.6365 49.7014V49.7028V49.705C26.6369 49.7055 26.6374 49.7057 26.638 49.7057C26.6389 49.7057 26.6394 49.7055 26.6394 49.705C26.6398 49.7046 26.6401 49.7039 26.6401 49.7028C26.6401 49.7019 26.6398 49.7014 26.6394 49.7014C26.6394 49.701 26.6389 49.7007 26.638 49.7007ZM26.638 49.6985C26.6394 49.6985 26.6403 49.699 26.6409 49.6999C26.6418 49.7005 26.6423 49.7014 26.6423 49.7028C26.6423 49.7043 26.6418 49.7055 26.6409 49.7064C26.6403 49.707 26.6394 49.7072 26.638 49.7072C26.6365 49.7072 26.6353 49.707 26.6344 49.7064C26.6338 49.7055 26.6336 49.7043 26.6336 49.7028C26.6336 49.7014 26.6338 49.7005 26.6344 49.6999C26.6353 49.699 26.6365 49.6985 26.638 49.6985Z" fill="#9B9FA4"/>
<path d="M26.6539 49.7002C26.6543 49.6998 26.6549 49.6993 26.6556 49.6993C26.656 49.6989 26.6566 49.6985 26.6572 49.6985C26.6583 49.6985 26.6592 49.6991 26.6598 49.7002C26.6602 49.7008 26.6606 49.7017 26.6606 49.7027V49.7087H26.6572V49.7036V49.7027V49.7019C26.6572 49.7015 26.6568 49.701 26.6564 49.701C26.6558 49.701 26.6551 49.7015 26.6547 49.7019V49.7036V49.7087H26.6513V49.7036V49.7019C26.6513 49.7015 26.6509 49.701 26.6505 49.701C26.6498 49.701 26.6492 49.7015 26.6488 49.7019V49.7036V49.7087H26.6454V49.6993H26.6488V49.7002C26.6488 49.6998 26.649 49.6993 26.6496 49.6993C26.65 49.6989 26.6507 49.6985 26.6513 49.6985C26.6517 49.6985 26.6524 49.6989 26.653 49.6993C26.6534 49.6993 26.6539 49.6998 26.6539 49.7002Z" fill="#9B9FA4"/>
<path d="M26.6703 49.6936V49.6965H26.6732V49.6979H26.6703V49.7016V49.7023H26.671H26.6725V49.7044H26.6703C26.6692 49.7044 26.6685 49.7043 26.6681 49.7037C26.6676 49.7034 26.6674 49.7026 26.6674 49.7016V49.6979H26.666V49.6965H26.6674V49.6936H26.6703Z" fill="#9B9FA4"/>
<path d="M26.6833 49.7001V49.7052H26.6811V49.7016V49.7001C26.6811 49.6997 26.6808 49.6994 26.6804 49.6994V49.6987H26.6797C26.6791 49.6987 26.6786 49.699 26.6782 49.6994V49.7008V49.7052H26.6754V49.6936H26.6782V49.6979C26.6782 49.6976 26.6784 49.6972 26.679 49.6972C26.6793 49.6969 26.6799 49.6965 26.6804 49.6965C26.6813 49.6965 26.682 49.697 26.6826 49.6979C26.6829 49.6985 26.6833 49.6992 26.6833 49.7001V49.7001Z" fill="#9B9FA4"/>
<path d="M26.6944 49.7028V49.7035H26.6886V49.7057H26.6908H26.6922C26.6926 49.7054 26.6933 49.7048 26.6944 49.7043V49.7064C26.6933 49.707 26.6926 49.7072 26.6922 49.7072H26.6908C26.6888 49.7072 26.6873 49.707 26.6864 49.7064C26.6859 49.7055 26.6857 49.7043 26.6857 49.7028C26.6857 49.7014 26.6859 49.7005 26.6864 49.6999C26.6873 49.699 26.6886 49.6985 26.69 49.6985C26.6915 49.6985 26.6924 49.699 26.6929 49.6999C26.6938 49.7005 26.6944 49.7014 26.6944 49.7028ZM26.6922 49.7021C26.6922 49.7017 26.6918 49.7014 26.6915 49.7014C26.6909 49.701 26.6904 49.7007 26.69 49.7007C26.6895 49.7007 26.689 49.701 26.6886 49.7014V49.7021H26.6922Z" fill="#9B9FA4"/>
<path d="M26.7032 49.6936H26.7061L26.7104 49.7008V49.6936H26.7133V49.7044H26.7097L26.7061 49.6965V49.7044H26.7032V49.6936Z" fill="#9B9FA4"/>
<path d="M26.7201 49.7007C26.7196 49.7007 26.719 49.701 26.7187 49.7014V49.7028V49.705C26.719 49.7055 26.7196 49.7057 26.7201 49.7057C26.721 49.7057 26.7216 49.7055 26.7216 49.705C26.7219 49.7046 26.7223 49.7039 26.7223 49.7028C26.7223 49.7019 26.7219 49.7014 26.7216 49.7014C26.7216 49.701 26.721 49.7007 26.7201 49.7007ZM26.7201 49.6985C26.7216 49.6985 26.7225 49.699 26.723 49.6999C26.7239 49.7005 26.7245 49.7014 26.7245 49.7028C26.7245 49.7043 26.7239 49.7055 26.723 49.7064C26.7225 49.707 26.7216 49.7072 26.7201 49.7072C26.7187 49.7072 26.7174 49.707 26.7165 49.7064C26.716 49.7055 26.7158 49.7043 26.7158 49.7028C26.7158 49.7014 26.716 49.7005 26.7165 49.6999C26.7174 49.699 26.7187 49.6985 26.7201 49.6985Z" fill="#9B9FA4"/>
<path d="M26.7276 49.7037V49.6985H26.7302V49.7011V49.7028V49.7045C26.7307 49.7045 26.7311 49.705 26.7311 49.7054H26.732H26.7337C26.7341 49.705 26.7345 49.7041 26.7345 49.7028V49.6985H26.7371V49.708H26.7345V49.7063C26.7339 49.7069 26.7333 49.7076 26.7328 49.708H26.7311C26.7298 49.708 26.7289 49.7078 26.7285 49.7071C26.7278 49.7067 26.7276 49.7054 26.7276 49.7037V49.7037Z" fill="#9B9FA4"/>
<path d="M26.747 49.7021V49.7072H26.7448V49.7035V49.7021C26.7448 49.7017 26.7445 49.7014 26.7441 49.7014V49.7007H26.7434C26.7428 49.7007 26.7423 49.701 26.7419 49.7014V49.7028V49.7072H26.739V49.6992H26.7419V49.6999C26.7419 49.6996 26.7421 49.6992 26.7427 49.6992C26.743 49.6988 26.7436 49.6985 26.7441 49.6985C26.745 49.6985 26.7457 49.699 26.7463 49.6999C26.7466 49.7005 26.747 49.7012 26.747 49.7021Z" fill="#9B9FA4"/>
<path d="M26.7561 49.6936H26.7612C26.7621 49.6936 26.7628 49.694 26.7633 49.6943C26.7642 49.6949 26.7648 49.6958 26.7648 49.6972C26.7648 49.6983 26.7642 49.6992 26.7633 49.7001C26.7628 49.7006 26.7621 49.7008 26.7612 49.7008H26.759V49.7044H26.7561L26.7561 49.6936ZM26.759 49.6958V49.6987H26.7604H26.7619C26.7622 49.6983 26.7626 49.6978 26.7626 49.6972C26.7626 49.6969 26.7622 49.6965 26.7619 49.6965C26.7613 49.6961 26.7608 49.6958 26.7604 49.6958H26.759Z" fill="#9B9FA4"/>
<path d="M26.7735 49.7014C26.7735 49.701 26.7732 49.7007 26.7728 49.7007C26.7717 49.7007 26.771 49.701 26.7707 49.7014V49.7035V49.7072H26.7678V49.6992H26.7707V49.6999C26.7707 49.6996 26.7708 49.6992 26.7714 49.6992C26.7717 49.6988 26.7723 49.6985 26.7728 49.6985H26.7735V49.7014Z" fill="#9B9FA4"/>
<path d="M26.7793 49.7007C26.7788 49.7007 26.7782 49.701 26.7779 49.7014V49.7028V49.705C26.7782 49.7055 26.7788 49.7057 26.7793 49.7057C26.7802 49.7057 26.7808 49.7055 26.7808 49.705C26.7811 49.7046 26.7815 49.7039 26.7815 49.7028C26.7815 49.7019 26.7811 49.7014 26.7808 49.7014C26.7808 49.701 26.7802 49.7007 26.7793 49.7007ZM26.7793 49.6985C26.7808 49.6985 26.7817 49.699 26.7822 49.6999C26.7831 49.7005 26.7837 49.7014 26.7837 49.7028C26.7837 49.7043 26.7831 49.7055 26.7822 49.7064C26.7817 49.707 26.7808 49.7072 26.7793 49.7072C26.7779 49.7072 26.7766 49.707 26.7757 49.7064C26.7752 49.7055 26.775 49.7043 26.775 49.7028C26.775 49.7014 26.7752 49.7005 26.7757 49.6999C26.7766 49.699 26.7779 49.6985 26.7793 49.6985Z" fill="#9B9FA4"/>
<path d="M26.7869 49.6978H26.7903V49.7072C26.7903 49.7082 26.7897 49.7091 26.7886 49.7097C26.788 49.7108 26.7871 49.7114 26.7861 49.7114H26.7844V49.7089H26.7852C26.7857 49.7089 26.7861 49.7084 26.7861 49.708C26.7865 49.708 26.7869 49.7076 26.7869 49.7072V49.6978ZM26.7869 49.6936H26.7903V49.6961H26.7869V49.6936Z" fill="#9B9FA4"/>
<path d="M26.8 49.7028V49.7035H26.7942V49.7057H26.7964H26.7979C26.7982 49.7054 26.7989 49.7048 26.8 49.7043V49.7064C26.7989 49.707 26.7982 49.7072 26.7979 49.7072H26.7964C26.7944 49.7072 26.793 49.707 26.7921 49.7064C26.7915 49.7055 26.7914 49.7043 26.7914 49.7028C26.7914 49.7014 26.7915 49.7005 26.7921 49.6999C26.793 49.699 26.7942 49.6985 26.7957 49.6985C26.7971 49.6985 26.798 49.699 26.7986 49.6999C26.7995 49.7005 26.8 49.7014 26.8 49.7028ZM26.7979 49.7021C26.7979 49.7017 26.7975 49.7014 26.7971 49.7014C26.7966 49.701 26.796 49.7007 26.7957 49.7007C26.7951 49.7007 26.7946 49.701 26.7942 49.7014V49.7021H26.7979Z" fill="#9B9FA4"/>
<path d="M26.8096 49.6992V49.7014C26.809 49.701 26.8085 49.7007 26.8081 49.7007H26.8074C26.8069 49.7007 26.8063 49.701 26.806 49.7014C26.8054 49.7019 26.8052 49.7025 26.8052 49.7028C26.8052 49.7039 26.8054 49.7046 26.806 49.705C26.8063 49.7055 26.8069 49.7057 26.8074 49.7057H26.8088C26.8092 49.7054 26.8096 49.705 26.8096 49.705V49.7072H26.8081H26.8074C26.8054 49.7072 26.804 49.707 26.8031 49.7064C26.8025 49.7055 26.8023 49.7043 26.8023 49.7028C26.8023 49.7014 26.8025 49.7005 26.8031 49.6999C26.804 49.699 26.8054 49.6985 26.8074 49.6985C26.8078 49.6985 26.8081 49.6988 26.8081 49.6992H26.8096Z" fill="#9B9FA4"/>
<path d="M26.8155 49.6936V49.6965H26.8184V49.6979H26.8155V49.7016V49.7023H26.8162H26.8176V49.7044H26.8155C26.8144 49.7044 26.8137 49.7043 26.8133 49.7037C26.8128 49.7034 26.8126 49.7026 26.8126 49.7016V49.6979H26.8111V49.6965H26.8126V49.6936H26.8155Z" fill="#9B9FA4"/>
<defs>
<filter id="filter0_d_2619_2536" x="0.619721" y="0.380961" width="79.362" height="79.362" filterUnits="userSpaceOnUse" color-interpolation-filters="sRGB">
<feFlood flood-opacity="0" result="BackgroundImageFix"/>
<feColorMatrix in="SourceAlpha" type="matrix" values="0 0 0 0 0 0 0 0 0 0 0 0 0 0 0 0 0 0 127 0" result="hardAlpha"/>
<feMorphology radius="2.73662" operator="dilate" in="SourceAlpha" result="effect1_dropShadow_2619_2536"/>
<feOffset dy="4.10493"/>
<feGaussianBlur stdDeviation="4.78908"/>
<feComposite in2="hardAlpha" operator="out"/>
<feColorMatrix type="matrix" values="0 0 0 0 0 0 0 0 0 0 0 0 0 0 0 0 0 0 0.08 0"/>
<feBlend mode="normal" in2="BackgroundImageFix" result="effect1_dropShadow_2619_2536"/>
<feBlend mode="normal" in="SourceGraphic" in2="effect1_dropShadow_2619_2536" result="shape"/>
</filter>
</defs>
</svg>
