<svg width="446" height="53" viewBox="0 0 446 53" fill="none" xmlns="http://www.w3.org/2000/svg">
<rect x="73.6152" y="1.37776" width="311.975" height="50.6275" rx="25.3137" fill="#F2F2F2" stroke="#EEEEEE" stroke-width="1.36831"/>
<circle cx="420.482" cy="26.6916" r="24.6296" fill="#3697FF"/>
<path d="M408.169 24.5665C408.156 24.7737 408.201 24.9807 408.299 25.1637C408.398 25.3466 408.546 25.498 408.726 25.6009L415.959 29.714L425.862 21.311L417.449 31.214L421.562 38.4469V38.4471C421.757 38.789 422.118 39.0021 422.511 39.007H422.584C422.791 38.9927 422.989 38.9209 423.157 38.7996C423.325 38.6782 423.455 38.5122 423.534 38.3204L432.715 15.9009C432.825 15.6305 432.824 15.3275 432.711 15.058C432.599 14.7886 432.385 14.5743 432.115 14.4619C431.846 14.3496 431.543 14.3483 431.272 14.4582L408.856 23.6143C408.664 23.6928 408.498 23.8237 408.376 23.9921C408.255 24.1605 408.183 24.3595 408.17 24.5668L408.169 24.5665Z" fill="white"/>
<path d="M3.43483 18.5784V26.2179C3.43483 27.3445 3.87074 28.4008 4.66191 29.1921C5.45323 29.9834 6.50949 30.4192 7.63613 30.4192C9.9527 30.4192 11.8374 28.5222 11.8374 26.1908V18.5782C11.8374 17.4516 11.4015 16.3953 10.6103 15.604C9.81898 14.8125 8.7629 14.3767 7.63626 14.3767C5.3195 14.3767 3.43483 16.2617 3.43483 18.5784ZM6.31715 24.4178L6.6632 21.4646C6.6632 23.2558 8.43938 23.2365 6.6632 23.2365C4.88685 23.2365 9.86107 23.2409 9.86107 21.4646L7.63626 23.0079C7.63626 21.2317 4.5408 22.6459 6.31715 22.6459C8.09332 22.6459 6.31715 22.6415 6.31715 24.4178Z" fill="#8F92A1" stroke="#8F92A1" stroke-width="0.684155"/>
<path d="M7.00842 33.434V35.4475H4.19942C3.92888 35.4475 3.70941 35.6669 3.70941 35.9375C3.70941 36.208 3.92885 36.4275 4.19942 36.4275H10.7973C11.0679 36.4275 11.2874 36.208 11.2874 35.9375C11.2874 35.6669 11.0679 35.4475 10.7973 35.4475H7.98834V33.434C11.7406 33.1827 14.5863 30.0867 14.5863 27.4077V24.3012C14.5863 24.0306 14.3668 23.8112 14.0963 23.8112C13.8257 23.8112 13.6063 24.0306 13.6063 24.3012V27.4077C13.6063 29.7011 10.8818 32.4708 7.49843 32.4708C4.13047 32.4708 1.3906 29.7061 1.3906 26.3079V24.301C1.3906 24.0305 1.17116 23.811 0.90059 23.811C0.630025 23.811 0.410583 24.0305 0.410583 24.301V26.3079C0.410583 28.2197 1.14609 30.0142 2.48162 31.3607C3.70256 32.592 5.29501 33.3175 7.00851 33.4338L7.00842 33.434Z" fill="#8F92A1" stroke="#8F92A1" stroke-width="0.684155"/>
<path fill-rule="evenodd" clip-rule="evenodd" d="M38.8599 22.9932C38.8599 22.9932 35.9401 25.913 33.9977 27.8554C33.4627 28.3904 33.162 29.1162 33.162 29.8729C33.162 30.6297 33.4627 31.3556 33.9977 31.8906L33.9978 31.8907C34.5331 32.426 35.2588 32.7264 36.0155 32.7264C36.7722 32.7264 37.4982 32.4259 38.0332 31.8907C40.0248 29.8991 43.3552 26.5687 45.6829 24.241C47.3133 22.6106 47.3133 19.967 45.6829 18.3363C45.6829 18.3363 45.6827 18.3363 45.6827 18.3361C44.0523 16.7057 41.4087 16.7057 39.778 18.3361L32.1247 25.9894C31.0929 27.0212 30.5134 28.4203 30.5134 29.8794C30.5134 31.3384 31.093 32.7377 32.1247 33.7695C32.1247 33.7696 32.1249 33.7699 32.1252 33.7699C33.157 34.8018 34.5561 35.3814 36.0152 35.3814C37.4742 35.3814 38.8735 34.8018 39.9052 33.7699C42.1294 31.5459 44.5721 29.1031 44.5721 29.1031C44.7515 28.9236 44.7515 28.6325 44.5721 28.4532C44.3926 28.2737 44.1014 28.2737 43.9221 28.4532L39.2553 33.12C38.3959 33.9794 37.2306 34.4622 36.0154 34.4622C34.8002 34.4622 33.6346 33.9794 32.7754 33.12C32.7753 33.1198 32.7753 33.1198 32.775 33.1195C31.9156 32.2602 31.4328 31.0948 31.4328 29.8796C31.4328 28.6644 31.9156 27.4989 32.775 26.6396C35.1655 24.2491 38.2609 21.1537 40.4282 18.9864C41.6998 17.7148 43.7613 17.7148 45.0328 18.9864C45.0328 18.9865 45.033 18.9865 45.033 18.9868C46.3045 20.2584 46.3045 22.3198 45.033 23.5914C42.7049 25.9195 39.3749 29.2499 37.3832 31.2415C37.0205 31.6043 36.5285 31.8079 36.0155 31.8079C35.5025 31.8079 35.0105 31.6043 34.6478 31.2415V31.2414C34.285 30.8786 34.0812 30.3866 34.0812 29.8736C34.0812 29.3608 34.2852 28.8688 34.6478 28.5062C36.5899 26.5639 39.51 23.644 39.51 23.644C39.6895 23.4645 39.6895 23.1733 39.51 22.994C39.3306 22.8144 39.0392 22.8144 38.8598 22.994L38.8599 22.9932Z" fill="#8F92A1" stroke="#8F92A1" stroke-width="0.684155"/>
</svg>
