<svg width="27" height="21" viewBox="0 0 27 21" fill="none" xmlns="http://www.w3.org/2000/svg">
<path d="M9.5523 3.0318H24.7992M9.5523 10.6552H24.7992M9.5523 18.2787H19.7169M3.19944 4.30238C3.90116 4.30238 4.47001 3.73352 4.47001 3.0318C4.47001 2.33009 3.90116 1.76123 3.19944 1.76123C2.49772 1.76123 1.92886 2.33009 1.92886 3.0318C1.92886 3.73352 2.49772 4.30238 3.19944 4.30238ZM3.19944 11.9258C3.90116 11.9258 4.47001 11.357 4.47001 10.6552C4.47001 9.95353 3.90116 9.38467 3.19944 9.38467C2.49772 9.38467 1.92886 9.95353 1.92886 10.6552C1.92886 11.357 2.49772 11.9258 3.19944 11.9258ZM3.19944 19.5493C3.90116 19.5493 4.47001 18.9804 4.47001 18.2787C4.47001 17.577 3.90116 17.0081 3.19944 17.0081C2.49772 17.0081 1.92886 17.577 1.92886 18.2787C1.92886 18.9804 2.49772 19.5493 3.19944 19.5493Z" stroke="#8F92A1" stroke-width="2.73662" stroke-linecap="round"/>
</svg>
