<svg width="26" height="26" viewBox="0 0 26 26" fill="none" xmlns="http://www.w3.org/2000/svg">
<path d="M12.9566 0.919922C6.27916 0.919922 0.847136 6.35195 0.847136 13.0294C0.847136 15.1418 1.39966 17.2172 2.44641 19.0431L0.45758 25.0092C0.409963 25.1524 0.444444 25.3097 0.547477 25.4197C0.626291 25.5038 0.735482 25.5494 0.847136 25.5494C0.882027 25.5494 0.916919 25.5449 0.9514 25.5358L7.46466 23.822C9.1567 24.6841 11.0519 25.1389 12.9566 25.1389C19.6341 25.1389 25.0661 19.7069 25.0661 13.0294C25.0661 6.35195 19.6341 0.919922 12.9566 0.919922ZM7.41499 14.8766C6.50945 14.8766 5.77303 14.1402 5.77303 13.2347C5.77303 12.3291 6.50945 11.5927 7.41499 11.5927C8.32053 11.5927 9.05696 12.3291 9.05696 13.2347C9.05696 14.1402 8.32053 14.8766 7.41499 14.8766ZM12.7514 14.8766C11.8458 14.8766 11.1094 14.1402 11.1094 13.2347C11.1094 12.3291 11.8458 11.5927 12.7514 11.5927C13.6569 11.5927 14.3933 12.3291 14.3933 13.2347C14.3933 14.1402 13.6569 14.8766 12.7514 14.8766ZM18.0878 14.8766C17.1822 14.8766 16.4458 14.1402 16.4458 13.2347C16.4458 12.3291 17.1822 11.5927 18.0878 11.5927C18.9933 11.5927 19.7297 12.3291 19.7297 13.2347C19.7297 14.1402 18.9933 14.8766 18.0878 14.8766Z" fill="#3697FF"/>
</svg>
