<svg width="25" height="24" viewBox="0 0 25 24" fill="none" xmlns="http://www.w3.org/2000/svg">
<path d="M13.8782 0.43701L8.48885 5.82575H2.30658C1.50336 5.82575 0.852783 6.47632 0.852783 7.27955V16.0023C0.852783 16.8049 1.50336 17.4561 2.30658 17.4561H8.48885L13.8782 22.8443C14.7886 23.7547 16.36 23.115 16.36 21.8163V1.46557C16.36 0.165028 14.7874 -0.471613 13.8782 0.43701ZM21.341 6.98394C20.6396 6.6005 19.7546 6.8531 19.3657 7.55637C18.9786 8.25965 19.2348 9.14343 19.9381 9.53172C20.7201 9.9618 21.2059 10.7699 21.2059 11.6409C21.2059 12.512 20.7201 13.3201 19.9387 13.7495C19.2354 14.1378 18.9792 15.0216 19.3663 15.7249C19.7558 16.4312 20.6414 16.682 21.3416 16.2973C23.0517 15.3554 24.1141 13.5715 24.1141 11.6403C24.1141 9.7092 23.0517 7.92588 21.341 6.98394Z" fill="#9B9FA4"/>
</svg>
