<svg width="21" height="30" viewBox="0 0 21 30" fill="none" xmlns="http://www.w3.org/2000/svg">
<path d="M19.742 15.9451C19.0361 15.2203 17.9333 15.2445 17.2716 16.0175L16.8966 16.4524H16.8745C16.8304 16.5249 16.7642 16.5973 16.7201 16.6698L14.757 18.9165V17.9502V16.3317V15.0512L14.7791 5.26705V4.13165C14.7791 2.97205 14.1836 2.19899 13.3233 2.22318C12.4851 2.24734 11.9337 2.94792 11.9337 4.08338C11.9117 5.82277 11.9337 8.98746 11.9337 10.2436C11.9337 10.5335 11.7131 10.7751 11.4485 10.7751H11.4043C11.1397 10.7751 10.9191 10.5335 10.9191 10.2194V9.44639V7.97271V5.00128C10.9191 3.98664 10.9411 2.972 10.9191 1.95736C10.897 0.797765 10.2574 -0.0236126 9.44128 0.000517993C8.62519 0.0246485 8.00753 0.821895 8.00753 2.00562C7.98548 4.78378 8.02959 7.56172 7.98548 10.3403C7.98548 10.6302 7.76491 10.8718 7.50022 10.8718C7.23553 10.8718 7.01496 10.6302 6.99293 10.3403C6.94881 7.94869 6.97087 5.53287 6.97087 3.14091C6.97087 1.8605 6.39738 1.08744 5.5151 1.13581C4.65489 1.15997 4.08135 2.00551 4.10343 3.21342C4.10343 5.60505 4.12549 10.05 4.12549 11.5724C4.12549 11.8623 3.90492 12.1039 3.64023 12.1039H3.57406C3.30937 12.1039 3.06677 11.8623 3.0888 11.5483C3.0888 10.3887 3.11086 7.65879 3.11086 6.18517C3.11086 4.97726 2.5594 4.30084 1.63305 4.32497C0.772844 4.34912 0.265503 5.0014 0.265503 6.18517V18.9164V22.2502C0.28756 26.8403 2.55945 29.5943 6.79444 29.9322C10.5221 30.2221 13.6541 28.9901 15.6834 25.2455C16.0363 24.5933 16.4113 23.9651 16.7862 23.3371L19.9625 18.433C20.4698 17.6841 20.3816 16.6212 19.7419 15.9447L19.742 15.9451Z" fill="#9B9FA4"/>
</svg>
